PathFileType	4	(X/Y/Z)	c:/Users/goper/Files/vsCode/490R/osim_files/A04/A04_Slow_06.trc
DataRate	CameraRate	NumFrames	NumMarkers	Units                	OrigDataRate	OrigDataStartFrame	OrigNumFrames
120.00	120.00	4	36	mm	120.0	1707	2275
                Frame#	Time	LPSIS			LASIS			LTH1			LTH2			LTH3			LTH4			LLFE			LMFE			LSH1			LSH2			LSH3			LSH4			LLMAL			LMMAL			LCAL			LMTP5			LTOE			LMTP1			RPSIS			RASIS			RTH1			RTH2			RTH3			RTH4			RLFE			RMFE			RSH1			RSH2			RSH3			RSH4			RLMAL			RMMAL			RCAL			RMTP1			RTOE			RMTP5		
		X1	Y1	Z1	X2	Y2	Z2	X3	Y3	Z3	X4	Y4	Z4	X5	Y5	Z5	X6	Y6	Z6	X7	Y7	Z7	X8	Y8	Z8	X9	Y9	Z9	X10	Y10	Z10	X11	Y11	Z11	X12	Y12	Z12	X13	Y13	Z13	X14	Y14	Z14	X15	Y15	Z15	X16	Y16	Z16	X17	Y17	Z17	X18	Y18	Z18	X19	Y19	Z19	X20	Y20	Z20	X21	Y21	Z21	X22	Y22	Z22	X23	Y23	Z23	X24	Y24	Z24	X25	Y25	Z25	X26	Y26	Z26	X27	Y27	Z27	X28	Y28	Z28	X29	Y29	Z29	X30	Y30	Z30	X31	Y31	Z31	X32	Y32	Z32	X33	Y33	Z33	X34	Y34	Z34	X35	Y35	Z35	X36	Y36	Z36

1707	14.21667	-1482.97876	1068.67383	381.36795	-1703.79907	1038.06873	468.17117	-1748.02795	734.49103	502.69141	-1767.86853	694.70850	503.35986	-1803.10107	758.54913	496.11642	-1818.00317	716.34442	497.77411	-1838.93921	567.88342	497.73602	-1853.43982	563.58844	359.01303	-1767.48108	486.84753	498.91095	-1757.14795	444.55881	496.83994	-1823.05005	464.93271	486.03784	-1804.46167	426.05905	484.57156	-1624.63269	195.40182	451.05887	-1649.44006	187.20564	367.41650	-1552.87109	190.89954	392.06268	-1719.30786	79.64992	489.75650	-1770.47656	69.46377	430.84747	-1750.10474	64.97186	385.40198	-1483.62109	1057.93262	275.38525	-1707.42676	1036.48279	181.42480	-1591.07617	732.59064	146.82881	-1596.75903	690.44171	147.45081	-1652.66187	734.94293	138.68651	-1650.27478	687.41034	143.34460	-1643.14136	551.82697	169.42226	-1651.35120	545.19684	283.88654	-1563.40698	345.76605	169.46303	-1563.08472	298.14847	176.90033	-1624.17285	338.66739	166.95728	-1614.38562	292.19565	170.77267	-1568.12622	103.32107	169.84279	-1590.62183	112.97149	304.04279	-1495.58752	61.95955	245.50014	-1717.83960	56.01544	288.46271	-1743.06421	77.37312	242.28268	-1712.47681	50.26319	169.02002
1708	14.22500	-1490.30200	1068.74609	381.45685	-1711.07959	1037.95032	467.98361	-1756.37366	734.74579	502.17087	-1776.34741	695.10126	502.62021	-1811.18445	759.26538	495.23331	-1826.53662	717.20917	496.82770	-1848.08496	569.44940	496.68344	-1862.71094	565.97803	357.92441	-1780.32092	485.20221	497.64429	-1772.10583	442.79153	495.32605	-1837.17615	467.03589	488.50232	-1819.91663	426.21875	483.26349	-1650.90063	187.69418	449.10858	-1676.00220	180.75984	365.56799	-1579.53198	179.99281	390.17639	-1750.60999	76.34116	487.78146	-1802.23328	68.47185	428.87320	-1782.11328	63.04621	383.34521	-1490.87207	1057.94116	275.47867	-1714.82886	1035.93420	181.25021	-1595.39392	733.10571	146.57309	-1600.60474	690.95190	147.22763	-1657.14771	734.81464	138.74983	-1654.12085	687.21503	143.53302	-1644.92700	551.63666	169.53960	-1652.89868	545.02722	283.93954	-1564.07935	345.90903	169.57224	-1563.57886	298.26794	176.93631	-1624.83435	338.60837	166.98947	-1614.92053	292.13300	170.84769	-1568.29846	103.40245	169.90773	-1591.50781	112.42236	304.06256	-1495.88367	61.96567	245.55550	-1718.37524	56.31580	288.51227	-1743.10986	77.21310	242.30077	-1712.49133	50.19869	169.04016
1709	14.23333	-1497.69275	1068.67822	381.55627	-1718.62695	1037.70093	467.93314	-1764.43518	734.70288	501.63947	-1785.41321	695.62415	501.68564	-1819.04456	759.67358	494.43225	-1834.69617	717.63031	495.96408	-1856.50598	570.54053	495.62537	-1871.47717	567.86554	356.90979	-1792.93640	483.23114	496.50455	-1786.82129	440.70053	494.06781	-1851.82288	467.44785	487.08633	-1835.27271	426.37289	481.91873	-1677.39807	180.11357	447.31601	-1703.32788	174.38882	363.72150	-1606.49890	169.30289	388.31137	-1782.27942	73.51659	485.89255	-1834.25562	68.12708	426.85416	-1814.50073	61.84127	381.37274	-1498.26221	1057.78625	275.60239	-1722.57727	1035.55652	181.26160	-1599.62964	733.64307	146.34256	-1604.44775	691.31372	147.08626	-1661.57068	734.49115	138.89638	-1657.91162	687.00446	143.77289	-1646.61682	551.49109	169.62769	-1654.43188	544.89941	284.01141	-1564.69446	346.04889	169.63672	-1564.15369	298.47498	176.93961	-1625.54590	338.59604	166.98979	-1615.54480	292.05493	170.90437	-1568.45532	103.50293	169.91962	-1590.92029	112.99919	304.28790	-1495.92664	62.17862	245.54573	-1719.03320	56.80884	288.32443	-1743.12439	76.98261	242.37953	-1712.53882	50.11079	169.02379
1710	14.24167	-1505.16858	1068.42004	381.69684	-1725.87622	1037.27954	467.87726	-1772.32593	734.33148	501.29056	-1793.30237	695.44824	501.05408	-1826.60815	759.67981	493.80945	-1843.47217	717.93243	495.37292	-1864.47656	571.12268	494.70578	-1879.80920	569.39447	356.00150	-1805.22546	480.90308	495.42053	-1801.32751	438.39441	492.91479	-1865.09766	467.40533	485.84882	-1850.20544	426.16925	480.71188	-1704.02795	172.70261	445.60602	-1730.07898	168.58505	362.17072	-1633.89832	158.66479	386.51807	-1813.97424	71.21464	484.17493	-1866.07483	68.21222	425.05203	-1846.90698	61.28025	379.57504	-1505.73450	1057.44373	275.69681	-1729.61450	1034.52759	181.21886	-1604.06189	734.06744	146.10484	-1608.36487	691.68896	146.95938	-1665.97217	734.18915	139.09743	-1661.76843	686.73419	143.95242	-1648.36255	551.33362	169.63376	-1655.84607	544.74066	284.14990	-1565.37207	346.16852	169.69266	-1564.77734	298.55811	177.06696	-1626.29639	338.57343	167.05119	-1616.13147	292.04977	170.89865	-1568.61621	103.59985	169.99139	-1591.96033	112.47890	304.01349	-1495.93433	62.36121	245.54971	-1719.04517	56.67919	288.36243	-1743.34143	77.10176	242.28770	-1712.53772	50.05713	169.02361
